<?xml version="1.0" encoding="UTF-8"?>
<svg id="uuid-f6f529f3-af9a-47a4-8298-ea533c460ca8" xmlns="http://www.w3.org/2000/svg" version="1.1" viewBox="0 0 125.79 68.76">
  <!-- Generator: Adobe Illustrator 29.5.1, SVG Export Plug-In . SVG Version: 2.1.0 Build 141)  -->
  <defs>
    <style>
      .st0, .st1 {
        fill: #fff;
      }

      .st2 {
        fill: none;
        stroke: #939598;
        stroke-miterlimit: 10;
        stroke-width: .58px;
      }

      .st1 {
        isolation: isolate;
        opacity: .5;
      }
    </style>
  </defs>
  <g id="uuid-ce5503c9-3f9f-496f-85fb-aa4203d2fb97">
    <g>
      <line class="st2" x1=".31" y1="52.08" x2="124.97" y2="52.08"/>
      <path class="st1" d="M2.9.63h13.74c3.94,0,6.71.98,8.55,2.82,1.25,1.26,2.01,2.91,2.01,5.06v.09c0,3.62-2.06,5.77-4.83,6.98,3.8,1.26,6.22,3.4,6.22,7.65v.09c0,5.37-4.38,8.63-11.86,8.63H.58V2.96C.58.26,2.9.63,2.9.63ZM14.49,13.11c2.64,0,4.11-.89,4.11-2.73v-.09c0-1.7-1.34-2.68-3.94-2.68h-5.64v5.5h5.47ZM15.75,24.96c2.64,0,4.16-1.03,4.16-2.86v-.09c0-1.7-1.34-2.82-4.25-2.82h-6.62v5.77h6.71Z"/>
      <path class="st0" d="M31.49,16.37v-.09C31.49,7.16,38.52,0,48,0c6.4,0,10.51,2.68,13.29,6.53l-6.53,5.05c-1.79-2.24-3.85-3.67-6.84-3.67-4.38,0-7.47,3.71-7.47,8.28v.09c0,4.7,3.09,8.37,7.47,8.37,3.27,0,5.19-1.52,7.07-3.8l6.53,4.65c-2.96,4.07-6.94,7.07-13.87,7.07-8.95,0-16.15-6.85-16.15-16.19h-.01Z"/>
      <path class="st0" d="M95.93,31.94h-7l-2.28-5.59h-12.08l-2.23,5.59h-9.13L76.53.4h8.37l12.34,29.19s1.02,2.34-1.31,2.34h0ZM84.14,19.59l-3.49-8.9-3.53,8.9h7.02Z"/>
      <path class="st0" d="M98.45,27.29l4.83-5.77c3.09,2.46,6.53,3.76,10.16,3.76,2.33,0,3.58-.8,3.58-2.15v-.09c0-1.3-1.03-2.01-5.28-3-6.67-1.52-11.81-3.4-11.81-9.84v-.09c0-5.82,4.61-10.02,12.12-10.02,5.32,0,9.48,1.43,12.88,4.16l-4.34,6.13c-2.86-2.01-5.99-3.09-8.77-3.09-2.1,0-3.13.89-3.13,2.01v.09c0,1.43,1.07,2.06,5.41,3.04,7.2,1.56,11.68,3.89,11.68,9.75v.09c0,6.4-5.06,10.2-12.66,10.2-5.55,0-10.83-1.75-14.67-5.19h0Z"/>
      <g>
        <path class="st0" d="M6.39,48.9c-3.67,0-6.39-2.83-6.39-6.41v-.03c0-3.55,2.67-6.45,6.5-6.45,2.35,0,3.76.79,4.92,1.92l-1.75,2.01c-.96-.87-1.94-1.41-3.19-1.41-2.1,0-3.62,1.75-3.62,3.88v.04c0,2.14,1.48,3.92,3.62,3.92,1.43,0,2.3-.57,3.28-1.46l1.74,1.76c-1.28,1.37-2.71,2.23-5.11,2.23Z"/>
        <path class="st0" d="M32.41,48.68l-1.14-2.8h-5.27l-1.14,2.8h-2.8l5.34-12.56h2.53l5.34,12.56h-2.87,0ZM28.64,39.42l-1.66,4.04h3.31l-1.66-4.04h.01Z"/>
        <path class="st0" d="M56.38,48.68v-8.14l-3.51,5.33h-.07l-3.47-5.27v8.09h-2.69v-12.47h2.96l3.28,5.27,3.28-5.27h2.96v12.47h-2.74Z"/>
        <path class="st0" d="M76.36,44.94h-2.09v3.74h-2.74v-12.47h5.09c2.97,0,4.77,1.76,4.77,4.31v.04c0,2.88-2.24,4.38-5.04,4.38h0ZM78.62,40.58c0-1.23-.86-1.89-2.23-1.89h-2.12v3.81h2.17c1.37,0,2.17-.82,2.17-1.89v-.04h.01Z"/>
        <path class="st0" d="M98.07,48.88c-3.35,0-5.4-1.87-5.4-5.54v-7.12h2.74v7.05c0,2.03,1.02,3.08,2.69,3.08s2.69-1.01,2.69-2.99v-7.14h2.74v7.04c0,3.78-2.12,5.63-5.47,5.63h.01Z"/>
        <path class="st0" d="M120.2,48.86c-1.89,0-3.79-.66-5.29-2l1.62-1.94c1.12.93,2.3,1.51,3.72,1.51,1.12,0,1.8-.45,1.8-1.18v-.04c0-.69-.43-1.05-2.51-1.58-2.51-.64-4.13-1.34-4.13-3.81v-.04c0-2.26,1.82-3.76,4.36-3.76,1.82,0,3.37.57,4.63,1.58l-1.42,2.07c-1.1-.77-2.19-1.23-3.24-1.23s-1.6.48-1.6,1.09v.04c0,.82.54,1.09,2.69,1.64,2.53.66,3.95,1.57,3.95,3.74v.04c0,2.48-1.89,3.87-4.58,3.87Z"/>
      </g>
      <g>
        <path class="st0" d="M.18,56.53c.25-.06.65-.1,1.04-.1.57,0,.93.1,1.2.32.23.17.37.43.37.78,0,.43-.29.8-.74.97v.02c.42.1.91.45.91,1.1,0,.38-.15.67-.38.88-.3.28-.8.41-1.52.41-.39,0-.69-.03-.88-.05v-4.32h0ZM.75,58.33h.52c.59,0,.94-.32.94-.74,0-.51-.39-.72-.96-.72-.26,0-.41.02-.5.04v1.42ZM.75,60.43c.12.02.27.03.48.03.59,0,1.13-.22,1.13-.86,0-.59-.52-.85-1.14-.85h-.47s0,1.68,0,1.68Z"/>
        <path class="st0" d="M7.79,56.52c.29-.05.71-.09,1.09-.09.61,0,1,.12,1.27.36.21.2.35.5.35.84,0,.57-.36.96-.82,1.12v.02c.33.12.53.43.64.89.15.61.25,1.04.34,1.21h-.59c-.07-.13-.17-.5-.29-1.05-.13-.61-.37-.83-.89-.85h-.53v1.9h-.57v-4.34h0ZM8.36,58.53h.58c.61,0,.99-.33.99-.84,0-.57-.41-.81-1.01-.81-.27,0-.47.02-.56.05,0,0,0,1.6,0,1.6Z"/>
        <path class="st0" d="M15.95,56.47v4.4h-.58v-4.4h.58Z"/>
        <path class="st0" d="M21.85,56.95h-1.34v-.48h3.25v.48h-1.34v3.91h-.58v-3.91h.01Z"/>
        <path class="st0" d="M28.9,56.47v4.4h-.57v-4.4h.57Z"/>
        <path class="st0" d="M33.9,60.17c.25.16.62.29,1.01.29.58,0,.92-.31.92-.75,0-.41-.24-.65-.83-.87-.72-.26-1.16-.64-1.16-1.25,0-.69.57-1.2,1.42-1.2.44,0,.78.11.97.21l-.16.46c-.14-.08-.43-.21-.83-.21-.6,0-.83.36-.83.66,0,.41.27.61.87.85.74.29,1.12.64,1.12,1.29s-.5,1.27-1.53,1.27c-.42,0-.89-.13-1.12-.29l.15-.48v.02Z"/>
        <path class="st0" d="M41.83,56.47v1.84h2.13v-1.84h.57v4.4h-.57v-2.06h-2.13v2.06h-.58v-4.4h.58Z"/>
        <path class="st0" d="M58.12,60.73c-.2.11-.63.21-1.16.21-1.24,0-2.17-.78-2.17-2.23s.93-2.31,2.3-2.31c.54,0,.9.12,1.04.2l-.14.46c-.21-.1-.52-.18-.88-.18-1.03,0-1.72.66-1.72,1.81,0,1.08.62,1.77,1.68,1.77.35,0,.71-.07.93-.18l.11.46h0Z"/>
        <path class="st0" d="M66.53,58.62c0,1.51-.92,2.32-2.04,2.32s-1.98-.91-1.98-2.24.86-2.31,2.04-2.31,1.98.92,1.98,2.23ZM63.11,58.68c0,.95.51,1.79,1.41,1.79s1.41-.83,1.41-1.83c0-.88-.46-1.79-1.4-1.79s-1.42.87-1.42,1.83Z"/>
        <path class="st0" d="M71.34,56.47h.58v3.92h1.88v.48h-2.45v-4.4h-.01Z"/>
        <path class="st0" d="M78.49,56.47h.57v3.92h1.88v.48h-2.45s0-4.4,0-4.4Z"/>
        <path class="st0" d="M87.92,58.8h-1.7v1.58h1.91v.48h-2.48v-4.4h2.38v.48h-1.81v1.39h1.7v.47Z"/>
        <path class="st0" d="M96.29,60.67c-.26.1-.76.24-1.36.24-.67,0-1.21-.17-1.65-.58-.38-.37-.61-.95-.61-1.64,0-1.31.9-2.27,2.38-2.27.51,0,.91.11,1.1.21l-.15.46c-.23-.11-.53-.19-.97-.19-1.07,0-1.77.67-1.77,1.77s.67,1.78,1.69,1.78c.37,0,.63-.05.76-.12v-1.31h-.89v-.46h1.45v2.11h.02Z"/>
        <path class="st0" d="M103.5,58.8h-1.7v1.58h1.9v.48h-2.48v-4.4h2.38v.48h-1.81v1.39h1.7v.47h.01Z"/>
        <path class="st0" d="M117.73,58.62c0,1.51-.92,2.32-2.04,2.32s-1.98-.91-1.98-2.24.86-2.31,2.04-2.31,1.98.92,1.98,2.23ZM114.32,58.68c0,.95.51,1.79,1.41,1.79s1.41-.83,1.41-1.83c0-.88-.46-1.79-1.4-1.79s-1.42.87-1.42,1.83Z"/>
        <path class="st0" d="M122.54,56.47h2.37v.48h-1.79v1.46h1.66v.47h-1.66v1.99h-.57v-4.4h-.01Z"/>
        <path class="st0" d="M11.37,67.31l-.46,1.38h-.59l1.5-4.39h.68l1.5,4.39h-.61l-.47-1.38h-1.56,0ZM12.82,66.86l-.44-1.27c-.1-.29-.16-.55-.23-.8h-.02c-.06.26-.13.53-.22.8l-.43,1.27h1.34Z"/>
        <path class="st0" d="M18.73,64.35c.27-.05.63-.08,1.09-.08.56,0,.97.13,1.23.37.23.21.38.53.38.92s-.12.71-.34.94c-.31.32-.79.48-1.34.48-.17,0-.33,0-.46-.04v1.76h-.57v-4.34h.01ZM19.3,66.47c.12.03.28.04.47.04.69,0,1.1-.34,1.1-.93s-.42-.87-1.04-.87c-.25,0-.43.02-.53.05,0,0,0,1.71,0,1.71Z"/>
        <path class="st0" d="M26.27,64.35c.27-.05.63-.08,1.09-.08.56,0,.97.13,1.23.37.24.21.38.53.38.92s-.12.71-.34.94c-.31.32-.79.48-1.35.48-.17,0-.32,0-.45-.04v1.76h-.57v-4.34h.01ZM26.84,66.47c.12.03.28.04.47.04.69,0,1.1-.34,1.1-.93s-.42-.87-1.04-.87c-.25,0-.44.02-.53.05,0,0,0,1.71,0,1.71Z"/>
        <path class="st0" d="M33.81,64.3h.57v3.92h1.88v.48h-2.45v-4.39h0Z"/>
        <path class="st0" d="M41.54,64.3v4.39h-.57v-4.39h.57Z"/>
        <path class="st0" d="M48.88,66.63h-1.7v1.58h1.91v.48h-2.48v-4.39h2.38v.47h-1.81v1.39h1.7s0,.47,0,.47Z"/>
        <path class="st0" d="M53.9,64.36c.35-.06.75-.1,1.21-.1.81,0,1.4.19,1.78.55.4.36.62.87.62,1.58s-.23,1.31-.63,1.71c-.42.41-1.1.63-1.95.63-.41,0-.74-.02-1.03-.05,0,0,0-4.32,0-4.32ZM54.47,68.25c.14.02.35.03.58.03,1.22,0,1.87-.68,1.87-1.87,0-1.04-.58-1.69-1.78-1.69-.29,0-.52.03-.67.06v3.48h0Z"/>
        <path class="st0" d="M67.7,68c.26.16.62.29,1.01.29.58,0,.92-.31.92-.75,0-.4-.23-.65-.83-.87-.72-.26-1.16-.64-1.16-1.25,0-.69.57-1.19,1.42-1.19.44,0,.78.11.96.21l-.15.47c-.14-.09-.43-.21-.83-.21-.6,0-.83.36-.83.66,0,.41.27.61.88.85.74.29,1.12.64,1.12,1.29s-.5,1.27-1.54,1.27c-.42,0-.89-.13-1.12-.29l.15-.48h0Z"/>
        <path class="st0" d="M75.91,64.78h-1.34v-.48h3.25v.48h-1.34v3.91h-.57s0-3.91,0-3.91Z"/>
        <path class="st0" d="M82.96,64.3v2.61c0,.98.44,1.4,1.03,1.4.64,0,1.07-.43,1.07-1.4v-2.61h.57v2.57c0,1.35-.71,1.9-1.66,1.9-.9,0-1.58-.51-1.58-1.88v-2.59s.57,0,.57,0Z"/>
        <path class="st0" d="M90.68,64.36c.35-.06.76-.1,1.21-.1.82,0,1.4.19,1.78.55.4.36.63.87.63,1.58s-.23,1.31-.63,1.71c-.42.41-1.1.63-1.95.63-.41,0-.74-.02-1.03-.05v-4.32h-.01ZM91.25,68.25c.14.02.35.03.57.03,1.22,0,1.87-.68,1.87-1.87,0-1.04-.58-1.69-1.78-1.69-.29,0-.52.03-.67.06v3.48h0Z"/>
        <path class="st0" d="M99.67,64.3v4.39h-.57v-4.39h.57Z"/>
        <path class="st0" d="M107.01,66.63h-1.7v1.58h1.91v.48h-2.48v-4.39h2.38v.47h-1.81v1.39h1.7s0,.47,0,.47Z"/>
        <path class="st0" d="M111.96,68c.25.16.62.29,1.01.29.58,0,.92-.31.92-.75,0-.4-.24-.65-.83-.87-.72-.26-1.16-.64-1.16-1.25,0-.69.57-1.19,1.42-1.19.44,0,.78.11.97.21l-.16.47c-.14-.09-.43-.21-.83-.21-.6,0-.83.36-.83.66,0,.41.27.61.87.85.74.29,1.12.64,1.12,1.29s-.49,1.27-1.53,1.27c-.42,0-.89-.13-1.12-.29,0,0,.15-.48.15-.48Z"/>
      </g>
    </g>
  </g>
</svg>