<?xml version="1.0" encoding="UTF-8"?>
<svg id="uuid-025a7882-c5f4-4b3f-89cc-f14f1232e749" data-name="Layer 2" xmlns="http://www.w3.org/2000/svg" viewBox="0 0 115.65 89.21">
  <defs>
    <style>
      .uuid-2b4e6b15-3bc9-4922-83f9-4e5d44f0d024 {
        fill: #ba141a;
      }

      .uuid-cda7479b-f1d9-4776-971d-1ec78ef00791 {
        fill: #231f20;
      }

      .uuid-d6c67473-0638-406e-beef-a67ac29405db {
        fill: #fff;
      }

      .uuid-f2980a8d-d5ea-41a1-9f67-11fdde000e5b {
        fill: none;
        stroke: #939598;
        stroke-miterlimit: 10;
        stroke-width: .54px;
      }

      .uuid-3a580cb3-bf00-48c1-a791-ba18edc4129c {
        fill: #013b82;
      }
    </style>
  </defs>
  <g id="uuid-419f4153-910a-4571-9f17-e729b3b1290e" data-name="Layer 1">
    <g>
      <line class="uuid-f2980a8d-d5ea-41a1-9f67-11fdde000e5b" x1=".28" y1="47.81" x2="114.74" y2="47.81"/>
      <path class="uuid-3a580cb3-bf00-48c1-a791-ba18edc4129c" d="M2.66.57h12.62c3.61,0,6.16.9,7.85,2.59,1.15,1.15,1.85,2.67,1.85,4.64v.08c0,3.33-1.89,5.3-4.44,6.41,3.49,1.15,5.71,3.12,5.71,7.03v.08c0,4.93-4.03,7.92-10.89,7.92H.53V2.72C.53.24,2.66.57,2.66.57ZM13.31,12.03c2.42,0,3.78-.82,3.78-2.51v-.08c0-1.56-1.23-2.46-3.61-2.46h-5.18v5.05h5.01ZM14.46,22.92c2.42,0,3.82-.95,3.82-2.63v-.08c0-1.56-1.23-2.59-3.9-2.59h-6.08v5.3h6.16Z"/>
      <path class="uuid-2b4e6b15-3bc9-4922-83f9-4e5d44f0d024" d="M28.91,15.03v-.08c0-8.38,6.45-14.95,15.16-14.95,5.87,0,9.65,2.46,12.2,6l-6,4.64c-1.64-2.05-3.53-3.37-6.28-3.37-4.02,0-6.86,3.41-6.86,7.6v.08c0,4.31,2.84,7.68,6.86,7.68,3,0,4.76-1.4,6.49-3.49l6,4.27c-2.71,3.74-6.37,6.49-12.73,6.49-8.22,0-14.83-6.29-14.83-14.87Z"/>
      <path class="uuid-2b4e6b15-3bc9-4922-83f9-4e5d44f0d024" d="M88.08,29.33h-6.43l-2.1-5.13h-11.09l-2.05,5.13h-8.38L70.27.37h7.68l11.33,26.8s.94,2.15-1.2,2.15ZM77.25,17.99l-3.2-8.17-3.24,8.17h6.45Z"/>
      <path class="uuid-2b4e6b15-3bc9-4922-83f9-4e5d44f0d024" d="M90.4,25.06l4.43-5.3c2.83,2.26,6,3.45,9.32,3.45,2.14,0,3.29-.74,3.29-1.97v-.08c0-1.19-.94-1.85-4.85-2.75-6.12-1.4-10.84-3.12-10.84-9.04v-.08C91.75,3.94,95.98.08,102.88.08c4.89,0,8.71,1.31,11.83,3.82l-3.98,5.63c-2.63-1.85-5.5-2.83-8.05-2.83-1.93,0-2.88.82-2.88,1.85v.08c0,1.32.99,1.89,4.97,2.79,6.61,1.44,10.72,3.57,10.72,8.95v.08c0,5.87-4.64,9.37-11.62,9.37-5.09,0-9.94-1.6-13.47-4.77Z"/>
      <g>
        <path class="uuid-cda7479b-f1d9-4776-971d-1ec78ef00791" d="M5.87,44.9c-3.37,0-5.87-2.6-5.87-5.89v-.03c0-3.26,2.45-5.92,5.97-5.92,2.16,0,3.45.72,4.51,1.77l-1.6,1.85c-.88-.8-1.78-1.29-2.93-1.29-1.93,0-3.32,1.6-3.32,3.57v.03c0,1.96,1.36,3.6,3.32,3.6,1.31,0,2.11-.52,3.01-1.34l1.6,1.62c-1.18,1.26-2.49,2.05-4.69,2.05Z"/>
        <path class="uuid-cda7479b-f1d9-4776-971d-1ec78ef00791" d="M29.76,44.7l-1.05-2.57h-4.84l-1.05,2.57h-2.57l4.91-11.53h2.32l4.91,11.53h-2.63ZM26.29,36.19l-1.52,3.71h3.04l-1.52-3.71Z"/>
        <path class="uuid-cda7479b-f1d9-4776-971d-1ec78ef00791" d="M51.77,44.7v-7.47l-3.22,4.89h-.07l-3.19-4.84v7.42h-2.47v-11.45h2.71l3.01,4.84,3.01-4.84h2.71v11.45h-2.5Z"/>
        <path class="uuid-cda7479b-f1d9-4776-971d-1ec78ef00791" d="M70.11,41.26h-1.91v3.43h-2.52v-11.45h4.68c2.73,0,4.38,1.62,4.38,3.96v.03c0,2.65-2.06,4.02-4.63,4.02ZM72.19,37.26c0-1.13-.79-1.73-2.04-1.73h-1.95v3.5h2c1.26,0,1.99-.75,1.99-1.73v-.03Z"/>
        <path class="uuid-cda7479b-f1d9-4776-971d-1ec78ef00791" d="M90.04,44.88c-3.07,0-4.95-1.72-4.95-5.09v-6.54h2.52v6.48c0,1.86.93,2.83,2.47,2.83s2.47-.93,2.47-2.75v-6.56h2.52v6.46c0,3.47-1.95,5.17-5.02,5.17Z"/>
        <path class="uuid-cda7479b-f1d9-4776-971d-1ec78ef00791" d="M110.36,44.86c-1.73,0-3.48-.61-4.86-1.83l1.49-1.78c1.03.85,2.11,1.39,3.42,1.39,1.03,0,1.65-.41,1.65-1.08v-.03c0-.64-.39-.97-2.31-1.46-2.31-.59-3.79-1.23-3.79-3.5v-.03c0-2.08,1.67-3.45,4.01-3.45,1.67,0,3.09.52,4.25,1.45l-1.31,1.9c-1.01-.7-2.01-1.13-2.98-1.13s-1.47.44-1.47,1v.03c0,.75.49,1,2.47,1.5,2.32.6,3.63,1.44,3.63,3.43v.03c0,2.27-1.73,3.55-4.2,3.55Z"/>
      </g>
      <g>
        <path class="uuid-cda7479b-f1d9-4776-971d-1ec78ef00791" d="M.16,51.91c.23-.06.59-.09.95-.09.52,0,.86.09,1.1.29.21.16.34.4.34.71,0,.4-.26.74-.68.89v.02c.38.09.83.41.83,1.01,0,.35-.14.62-.35.81-.27.26-.73.38-1.39.38-.36,0-.63-.02-.81-.05v-3.96ZM.69,53.56h.47c.55,0,.87-.29.87-.68,0-.47-.35-.66-.88-.66-.24,0-.38.02-.46.04v1.31ZM.69,55.49c.11.02.25.02.44.02.54,0,1.03-.2,1.03-.79,0-.54-.47-.78-1.04-.78h-.43v1.54Z"/>
        <path class="uuid-cda7479b-f1d9-4776-971d-1ec78ef00791" d="M7.15,51.9c.26-.05.65-.09,1-.09.56,0,.92.11,1.17.33.2.18.32.46.32.78,0,.53-.33.88-.75,1.02v.02c.3.11.49.4.59.81.13.56.23.95.31,1.11h-.54c-.07-.12-.16-.46-.26-.96-.12-.56-.34-.77-.82-.78h-.49v1.75h-.52v-3.98ZM7.68,53.74h.53c.56,0,.91-.31.91-.77,0-.52-.38-.75-.93-.75-.25,0-.43.02-.51.04v1.47Z"/>
        <path class="uuid-cda7479b-f1d9-4776-971d-1ec78ef00791" d="M14.64,51.84v4.04h-.53v-4.04h.53Z"/>
        <path class="uuid-cda7479b-f1d9-4776-971d-1ec78ef00791" d="M20.06,52.29h-1.23v-.44h2.99v.44h-1.23v3.59h-.53v-3.59Z"/>
        <path class="uuid-cda7479b-f1d9-4776-971d-1ec78ef00791" d="M26.54,51.84v4.04h-.53v-4.04h.53Z"/>
        <path class="uuid-cda7479b-f1d9-4776-971d-1ec78ef00791" d="M31.12,55.25c.23.15.57.26.93.26.53,0,.85-.28.85-.69,0-.37-.22-.59-.76-.8-.66-.24-1.06-.59-1.06-1.15,0-.63.52-1.1,1.3-1.1.41,0,.71.1.89.2l-.14.43c-.13-.08-.39-.19-.76-.19-.55,0-.76.33-.76.6,0,.38.25.56.8.78.68.26,1.03.59,1.03,1.19s-.46,1.17-1.41,1.17c-.39,0-.81-.12-1.03-.26l.14-.44Z"/>
        <path class="uuid-cda7479b-f1d9-4776-971d-1ec78ef00791" d="M38.41,51.84v1.69h1.95v-1.69h.52v4.04h-.52v-1.89h-1.95v1.89h-.53v-4.04h.53Z"/>
        <path class="uuid-cda7479b-f1d9-4776-971d-1ec78ef00791" d="M53.36,55.76c-.19.1-.58.19-1.07.19-1.14,0-1.99-.72-1.99-2.05s.86-2.12,2.11-2.12c.5,0,.82.11.96.18l-.13.42c-.19-.09-.47-.17-.81-.17-.95,0-1.58.6-1.58,1.67,0,.99.57,1.62,1.55,1.62.32,0,.65-.07.86-.17l.1.42Z"/>
        <path class="uuid-cda7479b-f1d9-4776-971d-1ec78ef00791" d="M61.08,53.82c0,1.38-.84,2.13-1.87,2.13s-1.82-.83-1.82-2.06.79-2.12,1.87-2.12,1.82.85,1.82,2.05ZM57.95,53.88c0,.87.47,1.64,1.29,1.64s1.29-.76,1.29-1.68c0-.81-.42-1.65-1.29-1.65s-1.3.8-1.3,1.68Z"/>
        <path class="uuid-cda7479b-f1d9-4776-971d-1ec78ef00791" d="M65.5,51.84h.53v3.6h1.72v.44h-2.25v-4.04Z"/>
        <path class="uuid-cda7479b-f1d9-4776-971d-1ec78ef00791" d="M72.07,51.84h.53v3.6h1.73v.44h-2.25v-4.04Z"/>
        <path class="uuid-cda7479b-f1d9-4776-971d-1ec78ef00791" d="M80.73,53.99h-1.57v1.46h1.75v.44h-2.28v-4.04h2.19v.44h-1.66v1.28h1.57v.43Z"/>
        <path class="uuid-cda7479b-f1d9-4776-971d-1ec78ef00791" d="M88.41,55.7c-.23.09-.7.22-1.25.22-.61,0-1.11-.16-1.51-.53-.35-.34-.56-.87-.56-1.5,0-1.2.83-2.09,2.18-2.09.47,0,.84.1,1.01.19l-.13.42c-.21-.1-.48-.17-.89-.17-.98,0-1.63.61-1.63,1.62s.61,1.63,1.56,1.63c.34,0,.58-.05.7-.11v-1.2h-.81v-.42h1.33v1.94Z"/>
        <path class="uuid-cda7479b-f1d9-4776-971d-1ec78ef00791" d="M95.03,53.99h-1.56v1.46h1.75v.44h-2.27v-4.04h2.19v.44h-1.66v1.28h1.56v.43Z"/>
        <path class="uuid-cda7479b-f1d9-4776-971d-1ec78ef00791" d="M108.1,53.82c0,1.38-.84,2.13-1.87,2.13s-1.82-.83-1.82-2.06.79-2.12,1.87-2.12,1.82.85,1.82,2.05ZM104.96,53.88c0,.87.47,1.64,1.29,1.64s1.29-.76,1.29-1.68c0-.81-.42-1.65-1.29-1.65s-1.3.8-1.3,1.68Z"/>
        <path class="uuid-cda7479b-f1d9-4776-971d-1ec78ef00791" d="M112.51,51.84h2.17v.44h-1.65v1.34h1.52v.43h-1.52v1.83h-.53v-4.04Z"/>
        <path class="uuid-cda7479b-f1d9-4776-971d-1ec78ef00791" d="M10.44,61.8l-.42,1.27h-.54l1.38-4.04h.62l1.38,4.04h-.56l-.43-1.27h-1.43ZM11.77,61.39l-.4-1.16c-.09-.26-.15-.5-.21-.74h-.01c-.06.24-.12.49-.2.73l-.4,1.17h1.22Z"/>
        <path class="uuid-cda7479b-f1d9-4776-971d-1ec78ef00791" d="M17.19,59.08c.25-.04.58-.08,1-.08.51,0,.89.12,1.13.34.21.19.35.49.35.85s-.11.65-.31.86c-.28.29-.72.44-1.23.44-.16,0-.3,0-.42-.04v1.62h-.52v-3.99ZM17.72,61.03c.11.03.26.04.43.04.63,0,1.01-.31,1.01-.86s-.38-.8-.95-.8c-.23,0-.4.02-.49.04v1.57Z"/>
        <path class="uuid-cda7479b-f1d9-4776-971d-1ec78ef00791" d="M24.12,59.08c.25-.04.58-.08,1-.08.51,0,.89.12,1.13.34.22.19.35.49.35.85s-.11.65-.31.86c-.28.29-.73.44-1.24.44-.15,0-.3,0-.42-.04v1.62h-.52v-3.99ZM24.64,61.03c.11.03.26.04.43.04.63,0,1.01-.31,1.01-.86s-.38-.8-.95-.8c-.23,0-.4.02-.49.04v1.57Z"/>
        <path class="uuid-cda7479b-f1d9-4776-971d-1ec78ef00791" d="M31.05,59.03h.53v3.6h1.73v.44h-2.25v-4.04Z"/>
        <path class="uuid-cda7479b-f1d9-4776-971d-1ec78ef00791" d="M38.14,59.03v4.04h-.53v-4.04h.53Z"/>
        <path class="uuid-cda7479b-f1d9-4776-971d-1ec78ef00791" d="M44.88,61.18h-1.56v1.45h1.75v.44h-2.28v-4.04h2.19v.44h-1.66v1.28h1.56v.43Z"/>
        <path class="uuid-cda7479b-f1d9-4776-971d-1ec78ef00791" d="M49.49,59.09c.32-.05.69-.09,1.11-.09.75,0,1.28.18,1.64.5.36.33.57.8.57,1.45s-.21,1.2-.58,1.57c-.38.38-1.01.58-1.79.58-.38,0-.68-.02-.95-.05v-3.97ZM50.01,62.66c.13.02.33.03.53.03,1.12,0,1.72-.62,1.72-1.71,0-.95-.53-1.56-1.64-1.56-.27,0-.47.02-.61.05v3.19Z"/>
        <path class="uuid-cda7479b-f1d9-4776-971d-1ec78ef00791" d="M62.16,62.43c.24.15.57.26.93.26.53,0,.84-.28.84-.69,0-.37-.21-.59-.76-.8-.66-.24-1.07-.59-1.07-1.15,0-.63.52-1.1,1.31-1.1.41,0,.71.1.89.2l-.14.43c-.13-.08-.4-.19-.76-.19-.55,0-.76.33-.76.6,0,.38.25.56.8.78.68.26,1.02.59,1.02,1.18,0,.62-.46,1.17-1.41,1.17-.39,0-.81-.12-1.03-.26l.14-.44Z"/>
        <path class="uuid-cda7479b-f1d9-4776-971d-1ec78ef00791" d="M69.69,59.47h-1.23v-.44h2.99v.44h-1.23v3.59h-.53v-3.59Z"/>
        <path class="uuid-cda7479b-f1d9-4776-971d-1ec78ef00791" d="M76.17,59.03v2.39c0,.9.4,1.28.94,1.28.59,0,.98-.39.98-1.28v-2.39h.53v2.36c0,1.24-.65,1.74-1.53,1.74-.83,0-1.45-.47-1.45-1.72v-2.38h.53Z"/>
        <path class="uuid-cda7479b-f1d9-4776-971d-1ec78ef00791" d="M83.26,59.09c.32-.05.7-.09,1.11-.09.75,0,1.28.18,1.64.5.37.33.58.8.58,1.45s-.21,1.2-.58,1.57c-.38.38-1.01.58-1.79.58-.38,0-.68-.02-.95-.05v-3.97ZM83.79,62.66c.13.02.32.03.53.03,1.12,0,1.72-.62,1.72-1.71,0-.95-.53-1.56-1.63-1.56-.27,0-.47.02-.61.05v3.19Z"/>
        <path class="uuid-cda7479b-f1d9-4776-971d-1ec78ef00791" d="M91.52,59.03v4.04h-.53v-4.04h.53Z"/>
        <path class="uuid-cda7479b-f1d9-4776-971d-1ec78ef00791" d="M98.26,61.18h-1.56v1.45h1.75v.44h-2.28v-4.04h2.19v.44h-1.66v1.28h1.56v.43Z"/>
        <path class="uuid-cda7479b-f1d9-4776-971d-1ec78ef00791" d="M102.79,62.43c.23.15.57.26.93.26.53,0,.84-.28.84-.69,0-.37-.22-.59-.76-.8-.66-.24-1.07-.59-1.07-1.15,0-.63.52-1.1,1.31-1.1.41,0,.71.1.89.2l-.14.43c-.13-.08-.4-.19-.76-.19-.55,0-.76.33-.76.6,0,.38.25.56.8.78.68.26,1.02.59,1.02,1.18,0,.62-.45,1.17-1.41,1.17-.39,0-.81-.12-1.03-.26l.14-.44Z"/>
      </g>
      <path class="uuid-3a580cb3-bf00-48c1-a791-ba18edc4129c" d="M104.43,89.21c6.2,0,11.22-5.02,11.22-11.22v-18.02c0,6.2-5.02,11.22-11.22,11.22H0v18.02h104.43Z"/>
      <g>
        <path class="uuid-d6c67473-0638-406e-beef-a67ac29405db" d="M11.78,84.11l-2.48-3.41-.93.96v2.45h-1.76v-8.01h1.76v3.5l3.25-3.5h2.13l-3.26,3.4,3.41,4.61h-2.12Z"/>
        <path class="uuid-d6c67473-0638-406e-beef-a67ac29405db" d="M20.69,84.11l-.73-1.8h-3.39l-.73,1.8h-1.8l3.43-8.06h1.62l3.43,8.06h-1.84ZM18.27,78.16l-1.06,2.6h2.13l-1.06-2.6Z"/>
        <path class="uuid-d6c67473-0638-406e-beef-a67ac29405db" d="M23.77,84.11v-8.01h1.76v6.41h3.99v1.6h-5.75Z"/>
        <path class="uuid-d6c67473-0638-406e-beef-a67ac29405db" d="M37.1,84.11v-5.23l-2.25,3.42h-.05l-2.23-3.39v5.19h-1.73v-8.01h1.9l2.1,3.39,2.1-3.39h1.9v8.01h-1.75Z"/>
        <path class="uuid-d6c67473-0638-406e-beef-a67ac29405db" d="M44.11,84.24c-2.15,0-3.47-1.2-3.47-3.56v-4.58h1.76v4.53c0,1.3.65,1.98,1.73,1.98s1.73-.65,1.73-1.92v-4.59h1.76v4.52c0,2.43-1.36,3.61-3.51,3.61Z"/>
        <path class="uuid-d6c67473-0638-406e-beef-a67ac29405db" d="M55.03,84.11l-3.88-5.09v5.09h-1.74v-8.01h1.62l3.75,4.93v-4.93h1.74v8.01h-1.5Z"/>
        <path class="uuid-d6c67473-0638-406e-beef-a67ac29405db" d="M64.41,84.11l-.73-1.8h-3.39l-.73,1.8h-1.8l3.43-8.06h1.62l3.43,8.06h-1.84ZM61.98,78.16l-1.06,2.6h2.13l-1.06-2.6Z"/>
        <path class="uuid-d6c67473-0638-406e-beef-a67ac29405db" d="M67.56,84.11v-8.01h1.76v8.01h-1.76Z"/>
      </g>
    </g>
  </g>
</svg>