<?xml version="1.0" encoding="UTF-8"?>
<svg id="uuid-07a2015c-3651-4a78-ac37-f52ff9715c12" data-name="Layer 2" xmlns="http://www.w3.org/2000/svg" viewBox="0 0 184.28 100.74">
  <defs>
    <style>
      .uuid-2e19f7e8-01ca-465b-8f1a-6f286889dc6a {
        fill: #ba141a;
      }

      .uuid-34f0621d-3a9b-401b-b60f-b65a4d846f70 {
        fill: #231f20;
      }

      .uuid-27a0548d-4554-4db5-9633-21370d8ecd7c {
        fill: #013b82;
      }

      .uuid-28eaa809-f314-47b2-b0cd-be332c8eed09 {
        fill: none;
        stroke: #939598;
        stroke-miterlimit: 10;
        stroke-width: .86px;
      }
    </style>
  </defs>
  <g id="uuid-f8f6a971-a102-4cd3-bbd1-07df1ef1bbf4" data-name="Layer 1">
    <g>
      <line class="uuid-28eaa809-f314-47b2-b0cd-be332c8eed09" x1=".45" y1="76.29" x2="183.09" y2="76.29"/>
      <path class="uuid-27a0548d-4554-4db5-9633-21370d8ecd7c" d="M4.25.92h20.13c5.77,0,9.83,1.44,12.52,4.13,1.83,1.84,2.95,4.26,2.95,7.41v.13c0,5.31-3.02,8.45-7.08,10.22,5.57,1.84,9.11,4.98,9.11,11.21v.13c0,7.86-6.42,12.65-17.37,12.65H.85V4.34C.85.39,4.25.92,4.25.92ZM21.24,19.2c3.87,0,6.03-1.31,6.03-4v-.13c0-2.49-1.97-3.93-5.77-3.93h-8.26v8.06h8ZM23.07,36.57c3.87,0,6.09-1.51,6.09-4.19v-.13c0-2.49-1.97-4.13-6.23-4.13h-9.7v8.45h9.83Z"/>
      <path class="uuid-2e19f7e8-01ca-465b-8f1a-6f286889dc6a" d="M46.14,23.99v-.13c0-13.37,10.29-23.86,24.19-23.86,9.37,0,15.4,3.93,19.46,9.57l-9.57,7.4c-2.62-3.27-5.64-5.37-10.03-5.37-6.42,0-10.94,5.44-10.94,12.13v.13c0,6.88,4.52,12.26,10.94,12.26,4.79,0,7.6-2.23,10.36-5.57l9.57,6.82c-4.33,5.97-10.16,10.36-20.32,10.36-13.11,0-23.66-10.03-23.66-23.73Z"/>
      <path class="uuid-2e19f7e8-01ca-465b-8f1a-6f286889dc6a" d="M140.54,46.79h-10.26l-3.34-8.19h-17.69l-3.27,8.19h-13.37L112.13.59h12.26l18.08,42.77s1.5,3.43-1.92,3.43ZM123.27,28.71l-5.11-13.04-5.18,13.04h10.29Z"/>
      <path class="uuid-2e19f7e8-01ca-465b-8f1a-6f286889dc6a" d="M144.24,39.98l7.08-8.46c4.52,3.61,9.57,5.51,14.88,5.51,3.41,0,5.24-1.18,5.24-3.15v-.13c0-1.9-1.51-2.95-7.73-4.39-9.77-2.23-17.3-4.98-17.3-14.42v-.13c0-8.52,6.75-14.69,17.76-14.69,7.8,0,13.89,2.1,18.88,6.1l-6.36,8.98c-4.2-2.95-8.78-4.52-12.85-4.52-3.08,0-4.59,1.31-4.59,2.95v.13c0,2.1,1.57,3.01,7.93,4.46,10.55,2.29,17.1,5.7,17.1,14.29v.13c0,9.37-7.41,14.95-18.55,14.95-8.13,0-15.86-2.56-21.49-7.6Z"/>
      <g>
        <path class="uuid-34f0621d-3a9b-401b-b60f-b65a4d846f70" d="M9.37,71.64c-5.37,0-9.37-4.15-9.37-9.4v-.05c0-5.19,3.92-9.45,9.53-9.45,3.44,0,5.5,1.15,7.2,2.82l-2.56,2.95c-1.41-1.28-2.85-2.06-4.67-2.06-3.08,0-5.3,2.56-5.3,5.69v.05c0,3.13,2.17,5.74,5.3,5.74,2.09,0,3.37-.83,4.8-2.14l2.56,2.58c-1.88,2.01-3.97,3.26-7.49,3.26Z"/>
        <path class="uuid-34f0621d-3a9b-401b-b60f-b65a4d846f70" d="M47.48,71.32l-1.67-4.1h-7.72l-1.67,4.1h-4.1l7.83-18.4h3.7l7.83,18.4h-4.2ZM41.95,57.75l-2.43,5.92h4.86l-2.43-5.92Z"/>
        <path class="uuid-34f0621d-3a9b-401b-b60f-b65a4d846f70" d="M82.6,71.32v-11.93l-5.14,7.8h-.11l-5.09-7.72v11.85h-3.94v-18.27h4.33l4.8,7.72,4.8-7.72h4.33v18.27h-3.99Z"/>
        <path class="uuid-34f0621d-3a9b-401b-b60f-b65a4d846f70" d="M111.87,65.84h-3.05v5.48h-4.02v-18.27h7.46c4.36,0,6.99,2.58,6.99,6.32v.05c0,4.23-3.29,6.42-7.38,6.42ZM115.19,59.45c0-1.8-1.25-2.76-3.26-2.76h-3.11v5.58h3.19c2.01,0,3.18-1.2,3.18-2.77v-.05Z"/>
        <path class="uuid-34f0621d-3a9b-401b-b60f-b65a4d846f70" d="M143.67,71.61c-4.91,0-7.91-2.74-7.91-8.12v-10.44h4.02v10.33c0,2.98,1.49,4.51,3.94,4.51s3.94-1.49,3.94-4.38v-10.46h4.02v10.31c0,5.53-3.11,8.25-8.01,8.25Z"/>
        <path class="uuid-34f0621d-3a9b-401b-b60f-b65a4d846f70" d="M176.1,71.59c-2.77,0-5.56-.97-7.75-2.92l2.37-2.84c1.64,1.36,3.37,2.22,5.45,2.22,1.64,0,2.64-.66,2.64-1.72v-.05c0-1.02-.63-1.54-3.68-2.32-3.68-.94-6.06-1.96-6.06-5.58v-.05c0-3.31,2.66-5.51,6.39-5.51,2.66,0,4.93.84,6.79,2.32l-2.09,3.03c-1.62-1.12-3.21-1.8-4.75-1.8s-2.35.71-2.35,1.59v.05c0,1.2.78,1.59,3.94,2.4,3.71.96,5.79,2.3,5.79,5.48v.05c0,3.63-2.77,5.67-6.71,5.67Z"/>
      </g>
      <g>
        <path class="uuid-34f0621d-3a9b-401b-b60f-b65a4d846f70" d="M.26,82.82c.36-.09.95-.15,1.52-.15.83,0,1.37.15,1.76.47.33.25.54.63.54,1.14,0,.63-.42,1.18-1.09,1.42v.03c.61.14,1.33.65,1.33,1.61,0,.55-.22.99-.55,1.29-.44.41-1.17.6-2.22.6-.57,0-1.01-.04-1.29-.08v-6.32ZM1.09,85.46h.76c.87,0,1.38-.47,1.38-1.09,0-.75-.56-1.05-1.4-1.05-.38,0-.6.03-.74.06v2.09ZM1.09,88.54c.17.03.4.04.7.04.86,0,1.65-.32,1.65-1.25,0-.87-.76-1.24-1.66-1.24h-.69v2.46Z"/>
        <path class="uuid-34f0621d-3a9b-401b-b60f-b65a4d846f70" d="M11.42,82.81c.42-.08,1.04-.14,1.6-.14.89,0,1.47.18,1.86.52.31.29.51.73.51,1.24,0,.84-.53,1.41-1.2,1.63v.03c.49.17.78.63.94,1.3.21.9.36,1.52.5,1.77h-.86c-.1-.19-.25-.73-.42-1.54-.19-.89-.55-1.22-1.3-1.25h-.78v2.79h-.83v-6.35ZM12.25,85.75h.85c.89,0,1.45-.49,1.45-1.22,0-.83-.6-1.19-1.48-1.19-.4,0-.68.03-.82.07v2.35Z"/>
        <path class="uuid-34f0621d-3a9b-401b-b60f-b65a4d846f70" d="M23.36,82.73v6.44h-.84v-6.44h.84Z"/>
        <path class="uuid-34f0621d-3a9b-401b-b60f-b65a4d846f70" d="M32.01,83.43h-1.96v-.71h4.77v.71h-1.97v5.73h-.84v-5.73Z"/>
        <path class="uuid-34f0621d-3a9b-401b-b60f-b65a4d846f70" d="M42.34,82.73v6.44h-.84v-6.44h.84Z"/>
        <path class="uuid-34f0621d-3a9b-401b-b60f-b65a4d846f70" d="M49.66,88.16c.37.24.91.42,1.48.42.85,0,1.35-.45,1.35-1.1,0-.59-.35-.95-1.22-1.27-1.05-.38-1.7-.94-1.7-1.83,0-1.01.83-1.75,2.08-1.75.65,0,1.14.15,1.41.31l-.23.68c-.2-.12-.63-.31-1.21-.31-.88,0-1.22.53-1.22.96,0,.6.39.9,1.28,1.25,1.09.42,1.64.94,1.64,1.89s-.73,1.86-2.25,1.86c-.62,0-1.3-.19-1.64-.42l.22-.7Z"/>
        <path class="uuid-34f0621d-3a9b-401b-b60f-b65a4d846f70" d="M61.28,82.73v2.7h3.12v-2.7h.84v6.44h-.84v-3.02h-3.12v3.02h-.84v-6.44h.84Z"/>
        <path class="uuid-34f0621d-3a9b-401b-b60f-b65a4d846f70" d="M85.14,88.97c-.3.15-.92.31-1.7.31-1.82,0-3.17-1.15-3.17-3.27s1.37-3.39,3.36-3.39c.79,0,1.31.17,1.53.29l-.21.68c-.31-.15-.76-.27-1.29-.27-1.51,0-2.52.96-2.52,2.66,0,1.59.91,2.59,2.47,2.59.52,0,1.03-.11,1.37-.27l.16.67Z"/>
        <path class="uuid-34f0621d-3a9b-401b-b60f-b65a4d846f70" d="M97.47,85.88c0,2.21-1.35,3.39-2.99,3.39s-2.9-1.33-2.9-3.28,1.26-3.38,2.98-3.38,2.9,1.35,2.9,3.27ZM92.46,85.98c0,1.39.74,2.62,2.07,2.62s2.06-1.21,2.06-2.67c0-1.29-.67-2.63-2.05-2.63s-2.08,1.28-2.08,2.68Z"/>
        <path class="uuid-34f0621d-3a9b-401b-b60f-b65a4d846f70" d="M104.51,82.73h.84v5.74h2.75v.7h-3.59v-6.44Z"/>
        <path class="uuid-34f0621d-3a9b-401b-b60f-b65a4d846f70" d="M115,82.73h.84v5.74h2.75v.7h-3.6v-6.44Z"/>
        <path class="uuid-34f0621d-3a9b-401b-b60f-b65a4d846f70" d="M128.81,86.15h-2.5v2.32h2.8v.7h-3.63v-6.44h3.49v.7h-2.65v2.04h2.5v.69Z"/>
        <path class="uuid-34f0621d-3a9b-401b-b60f-b65a4d846f70" d="M141.08,88.88c-.37.14-1.11.35-1.99.35-.98,0-1.78-.25-2.41-.85-.55-.54-.89-1.39-.89-2.4,0-1.92,1.33-3.33,3.48-3.33.74,0,1.34.17,1.62.3l-.21.68c-.34-.16-.77-.28-1.42-.28-1.57,0-2.59.97-2.59,2.59s.98,2.6,2.48,2.6c.55,0,.92-.08,1.11-.17v-1.92h-1.3v-.67h2.12v3.1Z"/>
        <path class="uuid-34f0621d-3a9b-401b-b60f-b65a4d846f70" d="M151.64,86.15h-2.49v2.32h2.79v.7h-3.63v-6.44h3.49v.7h-2.65v2.04h2.49v.69Z"/>
        <path class="uuid-34f0621d-3a9b-401b-b60f-b65a4d846f70" d="M172.49,85.88c0,2.21-1.35,3.39-2.99,3.39s-2.9-1.33-2.9-3.28,1.26-3.38,2.98-3.38,2.9,1.35,2.9,3.27ZM167.48,85.98c0,1.39.74,2.62,2.06,2.62s2.07-1.21,2.07-2.67c0-1.29-.67-2.63-2.06-2.63s-2.07,1.28-2.07,2.68Z"/>
        <path class="uuid-34f0621d-3a9b-401b-b60f-b65a4d846f70" d="M179.53,82.73h3.47v.7h-2.63v2.14h2.43v.69h-2.43v2.91h-.84v-6.44Z"/>
        <path class="uuid-34f0621d-3a9b-401b-b60f-b65a4d846f70" d="M16.66,98.61l-.67,2.03h-.86l2.2-6.44h.99l2.2,6.44h-.89l-.69-2.03h-2.28ZM18.78,97.96l-.64-1.86c-.14-.42-.24-.8-.33-1.18h-.02c-.09.38-.19.78-.32,1.17l-.64,1.86h1.95Z"/>
        <path class="uuid-34f0621d-3a9b-401b-b60f-b65a4d846f70" d="M27.44,94.27c.4-.07.93-.12,1.6-.12.82,0,1.42.19,1.81.53.34.3.56.78.56,1.35s-.17,1.04-.5,1.38c-.45.47-1.16.71-1.97.71-.25,0-.48,0-.67-.06v2.58h-.83v-6.37ZM28.27,97.38c.18.05.41.07.69.07,1.01,0,1.62-.5,1.62-1.37s-.61-1.27-1.52-1.27c-.36,0-.64.03-.78.07v2.5Z"/>
        <path class="uuid-34f0621d-3a9b-401b-b60f-b65a4d846f70" d="M38.49,94.27c.4-.07.93-.12,1.6-.12.82,0,1.42.19,1.8.53.35.3.56.78.56,1.35s-.17,1.04-.49,1.38c-.45.47-1.16.71-1.97.71-.25,0-.47,0-.67-.06v2.58h-.83v-6.37ZM39.32,97.38c.18.05.41.07.69.07,1.01,0,1.62-.5,1.62-1.37s-.61-1.27-1.52-1.27c-.36,0-.64.03-.78.07v2.5Z"/>
        <path class="uuid-34f0621d-3a9b-401b-b60f-b65a4d846f70" d="M49.54,94.2h.84v5.74h2.75v.7h-3.59v-6.44Z"/>
        <path class="uuid-34f0621d-3a9b-401b-b60f-b65a4d846f70" d="M60.87,94.2v6.44h-.84v-6.44h.84Z"/>
        <path class="uuid-34f0621d-3a9b-401b-b60f-b65a4d846f70" d="M71.62,97.62h-2.49v2.32h2.79v.7h-3.63v-6.44h3.49v.7h-2.65v2.04h2.49v.69Z"/>
        <path class="uuid-34f0621d-3a9b-401b-b60f-b65a4d846f70" d="M78.97,94.29c.51-.09,1.11-.14,1.77-.14,1.19,0,2.05.28,2.61.8.58.53.91,1.27.91,2.32s-.33,1.91-.93,2.51c-.61.6-1.61.93-2.86.93-.61,0-1.09-.03-1.51-.08v-6.33ZM79.79,99.98c.21.03.52.04.84.04,1.79,0,2.74-.99,2.74-2.74,0-1.52-.85-2.48-2.61-2.48-.43,0-.76.04-.98.08v5.09Z"/>
        <path class="uuid-34f0621d-3a9b-401b-b60f-b65a4d846f70" d="M99.19,99.62c.38.24.91.42,1.48.42.85,0,1.35-.45,1.35-1.1,0-.59-.34-.95-1.21-1.27-1.05-.38-1.7-.94-1.7-1.83,0-1,.83-1.75,2.08-1.75.65,0,1.14.15,1.41.31l-.22.68c-.2-.13-.64-.31-1.22-.31-.88,0-1.22.53-1.22.96,0,.61.4.9,1.28,1.24,1.09.42,1.64.94,1.64,1.89,0,1-.73,1.86-2.25,1.86-.62,0-1.3-.19-1.64-.42l.22-.7Z"/>
        <path class="uuid-34f0621d-3a9b-401b-b60f-b65a4d846f70" d="M111.21,94.9h-1.96v-.7h4.77v.7h-1.97v5.73h-.84v-5.73Z"/>
        <path class="uuid-34f0621d-3a9b-401b-b60f-b65a4d846f70" d="M121.54,94.2v3.82c0,1.44.65,2.04,1.5,2.04.94,0,1.57-.63,1.57-2.04v-3.82h.84v3.76c0,1.98-1.04,2.78-2.44,2.78-1.32,0-2.31-.74-2.31-2.75v-3.79h.84Z"/>
        <path class="uuid-34f0621d-3a9b-401b-b60f-b65a4d846f70" d="M132.86,94.29c.51-.09,1.11-.14,1.77-.14,1.2,0,2.05.28,2.61.8.59.53.92,1.27.92,2.32s-.33,1.91-.93,2.51c-.61.6-1.61.93-2.86.93-.6,0-1.09-.03-1.51-.08v-6.33ZM133.69,99.98c.21.03.52.04.84.04,1.79,0,2.74-.99,2.74-2.74.01-1.52-.85-2.48-2.61-2.48-.43,0-.76.04-.98.08v5.09Z"/>
        <path class="uuid-34f0621d-3a9b-401b-b60f-b65a4d846f70" d="M146.03,94.2v6.44h-.84v-6.44h.84Z"/>
        <path class="uuid-34f0621d-3a9b-401b-b60f-b65a4d846f70" d="M156.78,97.62h-2.5v2.32h2.79v.7h-3.63v-6.44h3.49v.7h-2.65v2.04h2.5v.69Z"/>
        <path class="uuid-34f0621d-3a9b-401b-b60f-b65a4d846f70" d="M164.02,99.62c.37.24.91.42,1.48.42.85,0,1.35-.45,1.35-1.1,0-.59-.35-.95-1.21-1.27-1.05-.38-1.7-.94-1.7-1.83,0-1,.83-1.75,2.08-1.75.65,0,1.14.15,1.42.31l-.23.68c-.2-.13-.63-.31-1.21-.31-.88,0-1.22.53-1.22.96,0,.61.39.9,1.28,1.24,1.09.42,1.63.94,1.63,1.89,0,1-.72,1.86-2.25,1.86-.62,0-1.3-.19-1.64-.42l.22-.7Z"/>
      </g>
    </g>
  </g>
</svg>