<?xml version="1.0" encoding="UTF-8"?>
<svg id="uuid-20f3edab-4bf7-44f8-8105-fe05945237f8" data-name="Layer 1" xmlns="http://www.w3.org/2000/svg" viewBox="0 0 656.86 197.78">
  <defs>
    <style>
      .uuid-4322d5b3-ea11-46c8-9d17-9587c1337018 {
        fill: #1180a3;
      }

      .uuid-62fea143-06ec-4626-9172-4900a96885b1 {
        fill: #231f20;
      }

      .uuid-4407dc03-a923-41bc-b769-f4f157e4e4ed {
        fill: #fff;
      }
    </style>
  </defs>
  <g>
    <path class="uuid-62fea143-06ec-4626-9172-4900a96885b1" d="M429.56,134.74l-18.6,52.07h4.41l6.22-17.84h20.18l6.35,17.84h4.48l-18.56-52.07h-4.47ZM440.59,165.44h-17.81l6.12-17.06c1.12-3.26,1.95-6.06,2.68-9.1h.19c.75,2.96,1.47,5.67,2.71,9.24l6.1,16.92Z"/>
    <path class="uuid-62fea143-06ec-4626-9172-4900a96885b1" d="M470.47,165.83c-5.03-2.05-7.57-3.64-7.57-7.36,0-3.27,2.44-6.15,7.02-6.15,3.63,0,6.1,1.32,7.41,2.23l1.51-3.38c-1.96-1.32-4.92-2.35-8.41-2.35-7.37,0-11.72,4.74-11.72,10.22,0,4.5,3.31,7.87,9.51,10.25,5.28,2.05,7.63,4.14,7.63,8.05s-2.68,6.77-8.34,6.77c-3.36,0-6.47-1.33-8.48-2.59l-1.41,3.51c2.5,1.54,5.97,2.58,9.64,2.58,7.83,0,12.8-4.36,12.8-10.77,0-5.61-3.51-8.64-9.59-11.02Z"/>
    <path class="uuid-62fea143-06ec-4626-9172-4900a96885b1" d="M500.18,165.83c-5.03-2.05-7.57-3.64-7.57-7.36,0-3.27,2.44-6.15,7.02-6.15,3.63,0,6.1,1.32,7.41,2.23l1.51-3.38c-1.96-1.32-4.92-2.35-8.41-2.35-7.37,0-11.72,4.74-11.72,10.22,0,4.5,3.31,7.87,9.51,10.25,5.28,2.05,7.63,4.14,7.63,8.05s-2.68,6.77-8.34,6.77c-3.36,0-6.47-1.33-8.47-2.59l-1.41,3.51c2.5,1.54,5.97,2.58,9.64,2.58,7.83,0,12.8-4.36,12.8-10.77,0-5.61-3.51-8.64-9.59-11.02Z"/>
    <path class="uuid-62fea143-06ec-4626-9172-4900a96885b1" d="M548.94,149.67h-4.29v23.05c0,1.47-.33,2.85-.71,3.97-1.5,3.61-5.32,7.27-10.54,7.27-7.11,0-9.55-5.6-9.55-13.5v-20.8h-4.29v21.64c0,13.82,7.72,16.34,12.66,16.34,6.65,0,10.81-4,12.66-7.34h.16l.27,6.49h3.94c-.19-2.86-.31-5.86-.31-9.29v-27.84Z"/>
    <path class="uuid-62fea143-06ec-4626-9172-4900a96885b1" d="M565.66,157.16h-.22l-.18-7.49h-3.91c.19,3.57.31,7.38.31,11.22v25.91h4.29v-20.37c0-1.18.11-2.39.3-3.45.99-5.78,4.58-10.04,9.61-10.04.74,0,1.3.01,1.88.13v-4.09c-.5-.12-1.02-.18-1.58-.18-4.97,0-8.86,3.58-10.5,8.34Z"/>
    <path class="uuid-62fea143-06ec-4626-9172-4900a96885b1" d="M598.48,148.82c-9.84,0-16.85,7.96-16.85,20.13,0,10.92,6.68,18.66,17.51,18.66,6.36,0,10.24-1.54,11.85-2.38l-1-3.28c-2.18,1.02-5.02,2.06-10.32,2.06-7.48,0-13.81-4.51-13.84-15.82h27.13c.12-.67.14-1.34.14-2.46,0-5.66-2.48-16.93-14.63-16.93ZM586.01,164.88c.65-5.52,4.07-12.65,11.97-12.65,8.74,0,10.83,7.65,10.74,12.65h-22.72Z"/>
    <path class="uuid-62fea143-06ec-4626-9172-4900a96885b1" d="M652.95,131.96h-4.28v23.22h-.16c-1.66-3.16-5.67-6.36-11.93-6.36-9.14,0-16.78,7.68-16.72,20.07,0,11.12,6.87,18.77,15.99,18.77,6.71,0,11.15-3.62,13.09-7.76h.19l.27,6.91h3.87c-.19-2.6-.31-5.98-.31-8.82v-46.03ZM648.67,171.68c0,1.12-.11,2.1-.38,3.04-1.52,5.96-6.33,9.4-11.47,9.4-8.52,0-12.62-7.42-12.62-15.62,0-9.32,4.93-16.18,12.79-16.18,5.88,0,10.08,4,11.33,8.84.24,1,.35,2.29.35,3.28v7.23Z"/>
    <path class="uuid-62fea143-06ec-4626-9172-4900a96885b1" d="M411.1,112.34c-.25-.64-.92-1-1.58-.85l-.2.04c-1.96.43-3.46.31-4.51-.41-1.51-1.01-2.23-3.29-2.23-6.97v-33.25c0-12.98-7.75-19.56-23.02-19.56-13.68,0-24.41,6.47-24.41,14.74,0,4.25,2.59,7.32,6.42,7.78,2.5.31,4.88-.82,6.61-2.66,3.37-3.55,2.93-7.76-1.14-12.3,2.42-2.53,6.68-4.02,11.56-4.02,7.94,0,11.33,4.72,11.33,15.75v8.41c-1.87.57-3.61,1.12-6.79,1.86-6.43,1.52-15.26,3.53-21.91,7.2-5.5,3.01-8.28,7.77-8.28,14.13,0,6.92,4.55,15.01,17.37,15.01,7.17,0,13.6-3.4,20.2-10.71.56,7.58,3.44,10.43,10.42,10.43,3.36,0,6.04-.78,9.23-2.33.86-.41,1.27-1.42.92-2.31ZM389.93,102.18c-1.57,2.17-6.65,8.63-12.99,8.63-8.57,0-10.36-6.02-10.36-11.06,0-8.3,6.34-12.13,23.36-16.33v18.76Z"/>
    <path class="uuid-62fea143-06ec-4626-9172-4900a96885b1" d="M585.88,83.88c0-18.48-13.93-32.95-31.72-32.95s-31.85,15.02-31.85,33.51,13.7,33.09,31.85,33.09c15.26,0,31.72-12.87,31.72-33.65ZM554.71,113.98c-12.17,0-18.08-9.76-18.08-29.82,0-26.31,9-29.69,16.85-29.69,12.17,0,18.09,9.71,18.09,29.69s-5.2,29.82-16.86,29.82Z"/>
    <path class="uuid-62fea143-06ec-4626-9172-4900a96885b1" d="M250.4,25.79h-36.04c-.82,0-1.48.66-1.48,1.47v.08c0,.75.46,1.43,1.16,1.68,3.22,1.19,11.96-.48,11.96,8.89v66.24c0,4.81-2.13,8.21-11.9,9.13-.77.08-1.36.71-1.36,1.47v.23c0,.82.66,1.48,1.48,1.48h38.58c.82,0,1.48-.66,1.48-1.48v-.2c0-.77-.6-1.42-1.38-1.47-10.61-.86-12.74-4.14-12.74-9.17v-24,24.02s.01-24.06.01-24.06h9.27c13.83,0,24.33-2.92,31.25-8.69,7.23-6.02,8.74-13.67,8.74-19.01,0-21.99-21.21-26.61-39.02-26.61ZM250.4,75.85h-10.23V29.61h10.65c19.95,0,22.64,11.38,22.64,22.51,0,15.3-3.77,23.73-23.06,23.73Z"/>
    <path class="uuid-62fea143-06ec-4626-9172-4900a96885b1" d="M318.63,50.89c-16.81,0-30.47,15.21-30.47,33.9s12.82,32.65,30.47,32.65c14.82,0,22.04-8.86,26.17-15.52.42-.66.23-1.53-.41-1.98l-.19-.14c-.65-.45-1.54-.32-2.03.3-5.45,6.84-10.21,10.79-18.47,10.79-10.42,0-21.55-7.19-21.55-27.35v-.14c-.01-.89.01-2.11.03-3.25h42.65c.12,0,.22-.09.23-.2l.02-.35c.6-8.27-1.74-15.68-6.59-20.91-4.73-5.1-11.61-7.8-19.86-7.8ZM331.06,75.9h-28.64c1.41-13.79,6.79-21.34,15.24-21.34,4.22,0,7.36,1.16,9.58,3.57,3.04,3.32,4.32,9.29,3.81,17.77Z"/>
    <path class="uuid-62fea143-06ec-4626-9172-4900a96885b1" d="M495.4,76.65h-.01c-11.66-3.28-16.21-6.59-16.21-11.81,0-5.96,4.73-10.28,11.24-10.28,7.66,0,10.95,3.66,19.03,17.18l.11.19c.04.07.12.11.2.11h1.1c.82,0,1.49-.67,1.49-1.48v-19.43c0-.12-.11-.23-.23-.23h-1.46c-.44,0-.86.2-1.14.55l-2.58,3.14c-3.26-1.8-8.56-3.69-13.89-3.69-13.4,0-22.75,8.29-22.75,20.14,0,11.12,7.39,15.3,20.11,18.74,12.38,3.39,16.76,6.91,16.76,13.46,0,7.28-7.05,10.55-12.06,10.55-9.32,0-13.26-3.46-22.19-19.51l-.11-.19c-.04-.08-.11-.12-.19-.12h-1.12c-.81,0-1.48.67-1.48,1.48v21.77c0,.12.1.22.22.22h1.53c.38,0,.77-.15,1.03-.43l4.09-4.09c4.78,2.97,11.93,4.52,16.56,4.52,6.97,0,12.71-2.2,16.57-6.39,3.45-3.71,5.34-8.99,5.34-14.85,0-10.13-5.41-15.43-19.96-19.55Z"/>
    <path class="uuid-62fea143-06ec-4626-9172-4900a96885b1" d="M418.62,113.45c-.78.04-1.38.7-1.38,1.47,0,.82.66,1.48,1.47,1.48h26.4c.8,0,1.46-.65,1.46-1.45s-.62-1.45-1.41-1.48c-6.11-.3-7.69-1.29-7.69-4.81v-38.7c4.34-7.22,7.46-11,12.74-12.15-.25.91-.43,2-.43,2.89,0,4.7,3.29,7.98,7.99,7.98s7.85-3.28,7.85-7.98c0-4.45-2.78-9.64-10.61-9.64-6.42,0-12.55,3.68-17.82,12.49v-9.96c0-1.02-.84-1.84-1.85-1.8l-16.64.44c-.8.02-1.44.67-1.44,1.47v.22c0,.73.54,1.35,1.24,1.45,5.55.79,6.31,3.43,6.31,6.16v47.13c0,3.35-.86,4.45-6.2,4.79Z"/>
    <path class="uuid-62fea143-06ec-4626-9172-4900a96885b1" d="M655.48,113.38c-5.33-.33-6.2-1.43-6.2-4.79v-38.12c0-12.18-6.29-19.17-17.23-19.17h-.16c-17.57,0-22.98,12.95-22.98,12.95l-.07-11.03c0-.41-.16-.78-.45-1.06-.29-.27-.65-.42-1.03-.42l-17.12.45c-.81.02-1.44.67-1.44,1.48v.21c0,.74.53,1.36,1.24,1.46,5.57.79,6.33,3.44,6.33,6.19v47.05c0,3.36-.85,4.46-6.19,4.79-.78.06-1.38.7-1.38,1.48s.66,1.47,1.47,1.47h23.57c.81,0,1.48-.66,1.48-1.52,0-.76-.59-1.41-1.34-1.47-4.19-.36-4.87-1.45-4.87-4.76l-.17-35.91c1.58-3.45,3.04-5.28,3.04-5.28,2.86-4.11,7.45-9,13.05-9,8.29,0,11.52,4.43,11.52,15.78v34.4c0,3.31-.69,4.4-5,4.77-.75.07-1.35.7-1.35,1.51s.67,1.47,1.48,1.47h23.71c.81,0,1.48-.66,1.48-1.47s-.62-1.43-1.38-1.48Z"/>
  </g>
  <path class="uuid-4322d5b3-ea11-46c8-9d17-9587c1337018" d="M141.27,12.73c41.79,23.82,51.52,77.2,22.43,131.22-25.54,47.48-81.35,67.76-122.94,43.59C-.82,163.37-8.94,95.91,8.93,57.1,34.88.74,95.09-13.58,141.27,12.73"/>
  <path class="uuid-4407dc03-a923-41bc-b769-f4f157e4e4ed" d="M140.29,53.7c8.18,8.74,10.73,21.99,9.3,32.86-1.62,12.39-9.13,23.86-21.62,31.47-9.92,6.03-22.93,8.43-35.74,8.55-.11,2.03-.51,9.02-.71,10.13-.3,1.63-.88,2.51-1.57,3.43-1.37,1.79-3.76,2.95-6.13,3.63-1.89.53-3.75.76-5.07.76-.22,0-.45-.01-.66-.03-1.38-.17-2.93-.81-3.89-1.88-.96-1.08-1.51-2.42-1.63-3.95l-.11-1.38c-.27-1.19-1.75-61.42-1.46-60.34.21-7.22,11.86-8.47,18.18-7.21,6.33,1.27,4.74,8.98,4.56,18.43,0,0-.3,12.45-.88,25.6,8.07-.32,14.48-2.62,20.48-5.59,12.1-6.01,18.51-15.21,18.51-28.78s-13.2-28.75-37.57-28.75-34.81,6.14-46.6,15.9c-2.66,2.19-4.7,4.42-6.65,5.87-1.92,1.46-7.08,1.68-8.45-1.73-1.66-4.12,1.44-8.72,3.26-10.94,2.87-3.48,9.94-10.51,17.76-14.59,8.97-4.68,19.94-9.73,35.22-10.11,13.83-.35,35.64.77,51.36,18.53M87.46,153.42c-1.26-.99-2.7-1.67-4.14-1.96-.48-.1-.99-.15-1.49-.15-2.71,0-5.37,1.49-7.12,4.01-1.45,2.09-2.06,4.58-1.66,7,.24,1.54.82,2.88,1.67,3.88.97,1.13,2.43,1.99,4.24,2.51,1.04.29,2.13.45,3.21.45,2.34,0,4.45-.7,6.09-2.03,1.91-1.56,2.95-3.77,2.92-6.24-.02-2.88-1.41-5.66-3.71-7.46"/>
</svg>